<svg width="53" height="48" viewBox="0 0 53 48" fill="none" xmlns="http://www.w3.org/2000/svg">
<g clip-path="url(#clip0_176_67)" filter="url(#filter0_d_176_67)">
<path d="M25.2891 4.44531C25.9844 3.85156 27.0157 3.85156 27.711 4.44531L48.336 21.9453C49.125 22.6172 49.2266 23.7969 48.5547 24.5859C47.8828 25.375 46.7031 25.4766 45.9141 24.8047L44 23.1797V37.75C44 41.2031 41.2032 44 37.75 44H15.25C11.7985 44 9.00003 41.2031 9.00003 37.75V23.1797L7.08831 24.8047C6.29847 25.4766 5.11565 25.375 4.44534 24.5859C3.77534 23.7969 3.87237 22.6172 4.66198 21.9453L25.2891 4.44531ZM12.75 20V37.75C12.75 39.1328 13.8672 40.25 15.25 40.25H37.75C39.1328 40.25 40.25 39.1328 40.25 37.75V20L26.5 8.33359L12.75 20Z" fill="#D26C6C"/>
</g>
<defs>
<filter id="filter0_d_176_67" x="0" y="0" width="53" height="48" filterUnits="userSpaceOnUse" color-interpolation-filters="sRGB">
<feFlood flood-opacity="0" result="BackgroundImageFix"/>
<feColorMatrix in="SourceAlpha" type="matrix" values="0 0 0 0 0 0 0 0 0 0 0 0 0 0 0 0 0 0 127 0" result="hardAlpha"/>
<feOffset/>
<feGaussianBlur stdDeviation="2"/>
<feColorMatrix type="matrix" values="0 0 0 0 1 0 0 0 0 0.425 0 0 0 0 0.425 0 0 0 1 0"/>
<feBlend mode="normal" in2="BackgroundImageFix" result="effect1_dropShadow_176_67"/>
<feBlend mode="normal" in="SourceGraphic" in2="effect1_dropShadow_176_67" result="shape"/>
</filter>
<clipPath id="clip0_176_67">
<rect width="45" height="40" fill="white" transform="translate(4 4)"/>
</clipPath>
</defs>
</svg>
