<svg width="45" height="45" viewBox="0 0 45 45" fill="none" xmlns="http://www.w3.org/2000/svg">
<path d="M21.0938 9.84375C21.0938 9.07031 21.7266 8.4375 22.5 8.4375C23.2734 8.4375 23.9062 9.07031 23.9062 9.84375V21.7441L31.7197 26.9561C32.3613 27.3867 32.5371 28.2568 32.1064 28.9072C31.6758 29.5488 30.8057 29.7246 30.1553 29.2939L21.7178 23.6689C21.3311 23.4053 21.0146 22.9658 21.0146 22.5L21.0938 9.84375ZM22.5 0C34.9277 0 45 10.0723 45 22.5C45 34.9277 34.9277 45 22.5 45C10.0723 45 0 34.9277 0 22.5C0 10.0723 10.0723 0 22.5 0ZM2.8125 22.5C2.8125 33.3721 11.6279 42.1875 22.5 42.1875C33.3721 42.1875 42.1875 33.3721 42.1875 22.5C42.1875 11.6279 33.3721 2.8125 22.5 2.8125C11.6279 2.8125 2.8125 11.6279 2.8125 22.5Z" fill="#C4C4C4"/>
</svg>
